# xmcd
#
# Track frame offsets: 
#        150
#        17494
#        32401
#        48889
#        60872
#        74947
#        88577
#        101799
#        118239
#        133242
#        148695
#        163360
#
# Disc length: 2347 seconds
#
# Revision: 1
# Processed by: cddbd v1.5.2PL0 Copyright (c) Steve Scherf et al.
# Submitted via: ExactAudioCopyFreeDBPlugin 1.0
#
DISCID=ad09290c
DTITLE=Leigh Nash - The State I'm In
DYEAR=2015
DGENRE=Pop
TTITLE0=Spider And The Moth
TTITLE1=Cruel heart
TTITLE2=Chicago
TTITLE3=Mountain
TTITLE4=What's Behind Me
TTITLE5=Somebody's Yesterday
TTITLE6=The Promise Break
TTITLE7=Dreaming Out Loud
TTITLE8=The State I'm In
TTITLE9=High Is Better
TTITLE10=Tell Me Now Tennessee
TTITLE11=Doing It Wrong
EXTD=
EXTT0=
EXTT1=
EXTT2=
EXTT3=
EXTT4=
EXTT5=
EXTT6=
EXTT7=
EXTT8=
EXTT9=
EXTT10=
EXTT11=
PLAYORDER=
